<svg width="100" height="100" viewBox="0 0 100 100" fill="none" xmlns="http://www.w3.org/2000/svg">
<mask id="path-1-outside-1_2980_82519" maskUnits="userSpaceOnUse" x="4.55566" y="4.55566" width="91" height="89" fill="black">
<rect fill="white" x="4.55566" y="4.55566" width="91" height="89"/>
<path d="M52.6525 74.3104C70.1494 74.3104 84.3335 59.5227 84.3335 41.2811C84.3335 23.9764 72.1755 7.35346 55.9894 5.69174C54.6769 5.60135 53.3395 5.55566 51.9784 5.55566H53.3265C54.2251 5.55566 55.1132 5.60178 55.9894 5.69174C79.0879 7.2825 94.4445 22.72 94.4445 46.6737C94.4445 71.9884 75.271 91.8361 49.9562 91.8361C29.8312 91.8361 13.6445 79.0288 7.57786 61.5031C6.9038 59.4809 5.77623 56.5708 5.60125 54.527C5.09315 48.5923 8.8909 43.4208 14.0838 42.9762C17.8629 42.6527 21.3394 44.9217 23.1481 48.4686C23.8247 49.7955 25.039 52.5635 25.7776 54.0884C30.9909 64.8767 40.2748 74.3104 52.6525 74.3104Z"/>
</mask>
<path d="M52.6525 74.3104C70.1494 74.3104 84.3335 59.5227 84.3335 41.2811C84.3335 23.9764 72.1755 7.35346 55.9894 5.69174C54.6769 5.60135 53.3395 5.55566 51.9784 5.55566H53.3265C54.2251 5.55566 55.1132 5.60178 55.9894 5.69174C79.0879 7.2825 94.4445 22.72 94.4445 46.6737C94.4445 71.9884 75.271 91.8361 49.9562 91.8361C29.8312 91.8361 13.6445 79.0288 7.57786 61.5031C6.9038 59.4809 5.77623 56.5708 5.60125 54.527C5.09315 48.5923 8.8909 43.4208 14.0838 42.9762C17.8629 42.6527 21.3394 44.9217 23.1481 48.4686C23.8247 49.7955 25.039 52.5635 25.7776 54.0884C30.9909 64.8767 40.2748 74.3104 52.6525 74.3104Z" fill="#3f51b5"/>
<path d="M25.7776 54.0884L26.678 53.6533L26.6776 53.6524L25.7776 54.0884ZM51.9784 4.55566C51.4261 4.55566 50.9784 5.00338 50.9784 5.55566C50.9784 6.10795 51.4261 6.55566 51.9784 6.55566V4.55566ZM7.57786 61.5031L6.62911 61.8194L6.63287 61.8302L7.57786 61.5031ZM5.60125 54.527L6.5976 54.4417L5.60125 54.527ZM14.0838 42.9762L13.9985 41.9799L14.0838 42.9762ZM23.1481 48.4686L24.0389 48.0143L23.1481 48.4686ZM83.3335 41.2811C83.3335 59.0101 69.5583 73.3104 52.6525 73.3104V75.3104C70.7406 75.3104 85.3335 60.0353 85.3335 41.2811H83.3335ZM53.3265 6.55566C54.1908 6.55566 55.0448 6.60002 55.8873 6.68651L56.0915 4.69696C55.1815 4.60354 54.2594 4.55566 53.3265 4.55566V6.55566ZM55.8873 6.68651C71.4358 8.28278 83.3335 24.35 83.3335 41.2811H85.3335C85.3335 23.6029 72.9152 6.42414 56.0915 4.69696L55.8873 6.68651ZM52.6525 73.3104C40.837 73.3104 31.8195 64.2932 26.678 53.6533L24.8772 54.5235C30.1622 65.4603 39.7125 75.3104 52.6525 75.3104V73.3104ZM53.3265 4.55566H51.9784V6.55566H53.3265V4.55566ZM93.4445 46.6737C93.4445 71.456 74.6991 90.8361 49.9562 90.8361V92.8361C75.8429 92.8361 95.4445 72.5209 95.4445 46.6737H93.4445ZM51.9784 6.55566C53.3171 6.55566 54.6316 6.6006 55.9207 6.68937L56.0581 4.6941C54.7222 4.6021 53.3618 4.55566 51.9784 4.55566V6.55566ZM55.9207 6.68937C67.2616 7.4704 76.6273 11.6425 83.1553 18.4868C89.6806 25.3283 93.4445 34.9172 93.4445 46.6737H95.4445C95.4445 34.4764 91.5302 24.3698 84.6025 17.1064C77.6776 9.84588 67.8157 5.50383 56.0581 4.6941L55.9207 6.68937ZM49.9562 90.8361C30.2835 90.8361 14.4587 78.3241 8.52285 61.176L6.63287 61.8302C12.8302 79.7335 29.3789 92.8361 49.9562 92.8361V90.8361ZM6.5976 54.4417C6.12556 48.9281 9.64729 44.3597 14.1691 43.9726L13.9985 41.9799C8.13452 42.4819 4.06074 48.2564 4.60489 54.6123L6.5976 54.4417ZM14.1691 43.9726C17.4698 43.69 20.5976 45.6684 22.2572 48.9229L24.0389 48.0143C22.0811 44.175 18.2559 41.6154 13.9985 41.9799L14.1691 43.9726ZM22.2572 48.9229C22.9412 50.2641 24.0952 52.9091 24.8777 54.5243L26.6776 53.6524C25.9828 52.218 24.7083 49.3268 24.0389 48.0143L22.2572 48.9229ZM4.60489 54.6123C4.70227 55.7496 5.05678 57.0757 5.44832 58.3227C5.83736 59.5617 6.30726 60.8536 6.62918 61.8193L8.52654 61.1869C8.17439 60.1304 7.74348 58.9561 7.35647 57.7236C6.97197 56.499 6.67521 55.3481 6.5976 54.4417L4.60489 54.6123Z" fill="#3f51b5" mask="url(#path-1-outside-1_2980_82519)"/>
</svg>
